<svg width="273" height="72" viewBox="0 0 273 72" fill="none" xmlns="http://www.w3.org/2000/svg">
<path d="M16.6699 28.3834H44.437C45.3818 28.3834 46.1479 27.6181 46.1479 26.6728C46.1479 25.7284 45.3818 24.963 44.437 24.963H16.6699C15.7246 24.963 14.959 25.7284 14.959 26.6728C14.959 27.6181 15.7246 28.3834 16.6699 28.3834Z" fill="#4A5B8C"/>
<path d="M16.6699 18.4804H36.429C37.3738 18.4804 38.1399 17.7141 38.1399 16.7697C38.1399 15.8253 37.3738 15.0604 36.429 15.0604H16.6699C15.7246 15.0604 14.959 15.8253 14.959 16.7697C14.959 17.7141 15.7246 18.4804 16.6699 18.4804Z" fill="#4A5B8C"/>
<path d="M8.35376 39.1951V5.10649C8.35376 4.78639 8.61484 4.52647 8.93554 4.52647H40.9435L41.0524 4.64442V15.1065C41.0524 16.4305 42.1257 17.5024 43.4494 17.5024H52.7538V27.074C50.4391 29.9807 47.5912 32.6275 44.2859 34.8657H16.6695C15.7242 34.8657 14.9586 35.631 14.9586 36.5753C14.9586 37.5197 15.7242 38.2859 16.6695 38.2859H38.1588C38.0167 38.3499 37.8756 38.4145 37.7327 38.477C27.5678 42.9359 16.7808 42.8917 8.35376 39.1951ZM39.5374 42.5869C54.4185 36.0584 62.5907 21.0805 59.6245 7.36288C59.8672 12.2223 58.6613 17.1727 56.2401 21.7587V16.7251C56.2401 16.2895 56.0765 15.8693 55.7812 15.5473L42.9958 1.60539C42.6664 1.24486 42.1994 1.04028 41.7111 1.04028H8.93554C6.69152 1.04028 4.86702 2.86499 4.86702 5.10649V37.3724C3.08193 36.2735 1.44662 34.9845 3.05176e-05 33.5146C8.09235 44.9868 24.6549 49.1147 39.5374 42.5869Z" fill="#4A5B8C"/>
<path d="M55.8592 68.4603C48.3525 68.4603 42.245 62.3561 42.245 54.8528C42.245 47.3495 48.3525 41.2454 55.8592 41.2454C63.3659 41.2454 69.4728 47.3495 69.4728 54.8528C69.4728 62.3561 63.3659 68.4603 55.8592 68.4603ZM56.2088 38.82L56.1861 31.9304C52.4763 37.2841 47.1192 41.8181 40.4777 44.7316C28.2914 50.0782 15.0173 48.5533 5.8165 41.8383V41.9322C5.48759 41.6939 5.16203 41.4509 4.84271 41.1996L4.90639 60.3419C4.91356 62.5838 6.74441 64.4017 8.98786 64.3945L42.8903 64.2828C45.8104 68.2841 50.5357 70.89 55.8592 70.89C64.706 70.89 71.9036 63.6957 71.9036 54.8528C71.9036 46.1264 64.8948 39.0068 56.2088 38.82Z" fill="#4A5B8C"/>
<path d="M54.2586 44.1944L51.6351 52.6607C51.5451 52.9512 51.5823 53.2664 51.7375 53.5279C51.8927 53.7893 52.1513 53.9727 52.4491 54.0323L58.3163 55.2075L53.9399 65.7268C48.7738 64.8851 44.8303 60.3959 44.8303 54.9841C44.8303 49.4616 48.9369 44.8997 54.2586 44.1944Z" fill="#F67B36"/>
<path d="M56.5243 44.1307L54.0364 52.1595L60.0198 53.358C60.3348 53.4211 60.605 53.6224 60.7561 53.9064C60.9071 54.1904 60.923 54.5273 60.7994 54.8244L56.2096 65.8567C61.9743 65.5892 66.5661 60.8237 66.5661 54.9841C66.5661 49.2512 62.1406 44.5535 56.5243 44.1307Z" fill="#F67B36"/>
<path d="M117.692 44.2561H127.642L111.871 1.71899H101.921L86.1498 44.2561H96.1005L99.2922 35.1857H114.5L117.692 44.2561ZM106.927 13.3541L111.621 26.6157H102.234L106.927 13.3541Z" fill="#4A5B8C"/>
<path d="M172.495 32.6209C170.242 34.6227 166.738 36.0614 162.795 36.0614C155.473 36.0614 150.028 30.2439 150.028 22.9875C150.028 15.7938 155.535 9.91363 162.795 9.91363C166.738 9.91363 170.117 11.3524 172.495 13.4167V3.22029C169.617 1.84409 166.3 1.03088 162.795 1.03088C150.341 1.03088 140.891 10.5392 140.891 22.9875C140.891 35.4359 150.341 44.9442 162.795 44.9442C166.3 44.9442 169.617 44.131 172.495 42.7548V32.6209Z" fill="#4A5B8C"/>
<path d="M192.461 44.2561H201.348V28.4298H203.539C208.733 28.4298 212.363 34.998 213.865 44.2561H223.064C222.063 35.1231 218.871 27.6166 213.552 24.8642C217.745 23.6756 221.25 20.1726 221.25 14.1048C221.25 6.22291 215.492 1.71899 207.168 1.71899H192.461V44.2561ZM212.112 15.1057C212.112 18.1708 209.985 19.8598 207.168 19.8598H201.348V10.289H207.168C209.985 10.289 212.112 11.9779 212.112 15.1057Z" fill="#4A5B8C"/>
<path d="M242.076 44.2561H250.962V28.68H256.595C264.918 28.68 270.613 23.6131 270.613 15.1682C270.613 6.7859 264.918 1.71899 256.595 1.71899H242.076V44.2561ZM261.476 15.2308C261.476 18.4836 259.348 20.11 256.47 20.11H250.962V10.289H256.47C259.348 10.289 261.476 11.9154 261.476 15.2308Z" fill="#4A5B8C"/>
<path d="M91.1429 62.4342L91.6084 63.6854H93.4804L90.6191 56.6631H89.1545L86.2932 63.6854H88.1555L88.6307 62.4342H91.1429ZM90.8228 61.0763H88.9411L89.882 58.5448L90.8228 61.0763ZM97.3288 61.1151H97.7362L99.3366 63.6854H101.257L99.3851 60.8047C99.6566 60.698 99.9767 60.4847 100.239 60.2422C100.588 59.9124 100.782 59.4468 100.782 58.9134C100.782 58.215 100.51 57.6137 100.035 57.2548C99.5791 56.9056 98.9583 56.7601 97.9496 56.7601H95.5732V63.6854H97.3288V61.1151ZM97.3288 59.8154V58.1374H98.0175C98.3957 58.1374 98.5994 58.1859 98.7352 58.3217C98.8613 58.4381 98.9777 58.7582 98.9777 58.9716C98.9777 59.1559 98.8807 59.4565 98.774 59.5826C98.6382 59.7475 98.4248 59.8154 97.9884 59.8154H97.3288ZM104.342 63.6854H106.185V58.1956H107.795V56.7601H102.742V58.1956H104.342V63.6854ZM109.939 63.6854H114.391V62.2499H111.724V60.8435H113.955V59.408H111.724V58.1956H114.255V56.7601H109.939V63.6854ZM117.013 63.6854H121.223V62.2499H118.846V56.7601H117.013V63.6854ZM132.123 61.8329C131.609 62.2402 131.172 62.3857 130.454 62.3857C129.688 62.3857 129.261 62.182 128.98 61.7068C128.767 61.3285 128.66 60.8629 128.66 60.2616C128.66 58.8067 129.271 58.0598 130.474 58.0598C131.046 58.0598 131.512 58.1859 131.871 58.4381L132.433 57.1481C131.793 56.7795 131.133 56.6243 130.27 56.6243C129.087 56.6243 128.233 56.9541 127.622 57.6331C127.031 58.2926 126.759 59.1365 126.759 60.2907C126.759 62.6282 127.933 63.8212 130.222 63.8212C131.347 63.8212 132.191 63.5981 132.666 63.1811L132.123 61.8329ZM134.807 63.6854H139.016V62.2499H136.64V56.7601H134.807V63.6854ZM145.68 62.4342L146.145 63.6854H148.017L145.156 56.6631H143.691L140.83 63.6854H142.692L143.168 62.4342H145.68ZM145.36 61.0763H143.478L144.419 58.5448L145.36 61.0763ZM150.11 63.6854H151.943V56.7601H150.11V63.6854ZM154.467 63.6854H156.126L156.485 59.8736L158.027 63.666H158.851L160.393 59.8736L160.752 63.6854H162.411L161.577 56.7601H160.17L158.444 60.9308L156.708 56.7601H155.301L154.467 63.6854ZM170.369 61.1151H170.777L172.377 63.6854H174.298L172.426 60.8047C172.697 60.698 173.017 60.4847 173.279 60.2422C173.628 59.9124 173.822 59.4468 173.822 58.9134C173.822 58.215 173.551 57.6137 173.076 57.2548C172.62 56.9056 171.999 56.7601 170.99 56.7601H168.614V63.6854H170.369V61.1151ZM170.369 59.8154V58.1374H171.058C171.436 58.1374 171.64 58.1859 171.776 58.3217C171.902 58.4381 172.018 58.7582 172.018 58.9716C172.018 59.1559 171.921 59.4565 171.815 59.5826C171.679 59.7475 171.465 59.8154 171.029 59.8154H170.369ZM176.465 63.6854H180.917V62.2499H178.249V60.8435H180.48V59.408H178.249V58.1956H180.781V56.7601H176.465V63.6854ZM185.294 61.3964H186.099C186.856 61.3964 187.438 61.2606 187.865 60.9793C188.427 60.601 188.747 59.9124 188.747 59.088C188.747 58.3217 188.476 57.6816 187.981 57.2936C187.506 56.9153 186.866 56.7601 185.818 56.7601H183.539V63.6854H185.294V61.3964ZM185.294 60.0191V58.1374H185.867C186.293 58.1374 186.516 58.1859 186.662 58.3217C186.827 58.4769 186.933 58.7679 186.933 59.0783C186.933 59.3498 186.846 59.6117 186.71 59.7766C186.555 59.9609 186.342 60.0191 185.867 60.0191H185.294ZM194.471 56.6243C193.268 56.6243 192.366 56.9832 191.677 57.7398C191.115 58.3508 190.804 59.2237 190.804 60.1743C190.804 61.2218 191.086 62.0365 191.677 62.7058C192.347 63.4623 193.258 63.8212 194.48 63.8212C195.683 63.8212 196.595 63.4526 197.264 62.7058C197.836 62.0656 198.137 61.2218 198.137 60.2228C198.137 58.021 196.711 56.6243 194.471 56.6243ZM194.471 58.0598C195.596 58.0598 196.236 58.8455 196.236 60.2228C196.236 61.6001 195.596 62.3857 194.471 62.3857C193.336 62.3857 192.705 61.6098 192.705 60.1937C192.705 58.8455 193.355 58.0598 194.471 58.0598ZM202.454 61.1151H202.862L204.462 63.6854H206.383L204.511 60.8047C204.782 60.698 205.102 60.4847 205.364 60.2422C205.713 59.9124 205.907 59.4468 205.907 58.9134C205.907 58.215 205.636 57.6137 205.161 57.2548C204.705 56.9056 204.084 56.7601 203.075 56.7601H200.699V63.6854H202.454V61.1151ZM202.454 59.8154V58.1374H203.143C203.521 58.1374 203.725 58.1859 203.861 58.3217C203.987 58.4381 204.103 58.7582 204.103 58.9716C204.103 59.1559 204.006 59.4565 203.9 59.5826C203.764 59.7475 203.55 59.8154 203.114 59.8154H202.454ZM209.468 63.6854H211.311V58.1956H212.921V56.7601H207.868V58.1956H209.468V63.6854ZM214.618 63.152C215.2 63.5884 216.121 63.8309 217.246 63.8309C218.187 63.8309 218.885 63.6466 219.322 63.2684C219.72 62.9386 219.962 62.2984 219.962 61.6098C219.962 60.475 219.39 59.8833 217.789 59.3498C217.072 59.1171 217.004 59.088 216.819 58.9619C216.674 58.8552 216.577 58.6806 216.577 58.5351C216.577 58.2344 216.897 58.0598 217.46 58.0598C218.012 58.0598 218.517 58.1859 218.992 58.4381L219.555 57.1481C218.866 56.7892 218.177 56.6243 217.363 56.6243C215.879 56.6243 214.986 57.3906 214.986 58.6612C214.986 59.7087 215.626 60.4362 216.946 60.8726C217.848 61.1733 217.848 61.1733 218.022 61.2897C218.187 61.3964 218.284 61.571 218.284 61.7747C218.284 62.2014 217.925 62.3857 217.091 62.3857C216.354 62.3857 215.656 62.1723 215.19 61.7941L214.618 63.152ZM227.795 61.3964H228.6C229.357 61.3964 229.939 61.2606 230.366 60.9793C230.928 60.601 231.248 59.9124 231.248 59.088C231.248 58.3217 230.977 57.6816 230.482 57.2936C230.007 56.9153 229.367 56.7601 228.319 56.7601H226.04V63.6854H227.795V61.3964ZM227.795 60.0191V58.1374H228.368C228.794 58.1374 229.017 58.1859 229.163 58.3217C229.328 58.4769 229.435 58.7679 229.435 59.0783C229.435 59.3498 229.347 59.6117 229.211 59.7766C229.056 59.9609 228.843 60.0191 228.368 60.0191H227.795ZM236.972 56.6243C235.769 56.6243 234.867 56.9832 234.178 57.7398C233.616 58.3508 233.305 59.2237 233.305 60.1743C233.305 61.2218 233.587 62.0365 234.178 62.7058C234.848 63.4623 235.759 63.8212 236.982 63.8212C238.184 63.8212 239.096 63.4526 239.765 62.7058C240.337 62.0656 240.638 61.2218 240.638 60.2228C240.638 58.021 239.212 56.6243 236.972 56.6243ZM236.972 58.0598C238.097 58.0598 238.737 58.8455 238.737 60.2228C238.737 61.6001 238.097 62.3857 236.972 62.3857C235.837 62.3857 235.207 61.6098 235.207 60.1937C235.207 58.8455 235.856 58.0598 236.972 58.0598ZM244.956 61.1151H245.363L246.963 63.6854H248.884L247.012 60.8047C247.283 60.698 247.603 60.4847 247.865 60.2422C248.215 59.9124 248.409 59.4468 248.409 58.9134C248.409 58.215 248.137 57.6137 247.662 57.2548C247.206 56.9056 246.585 56.7601 245.576 56.7601H243.2V63.6854H244.956V61.1151ZM244.956 59.8154V58.1374H245.644C246.022 58.1374 246.226 58.1859 246.362 58.3217C246.488 58.4381 246.604 58.7582 246.604 58.9716C246.604 59.1559 246.507 59.4565 246.401 59.5826C246.265 59.7475 246.052 59.8154 245.615 59.8154H244.956ZM251.969 63.6854H253.812V58.1956H255.422V56.7601H250.369V58.1956H251.969V63.6854ZM261.233 62.4342L261.698 63.6854H263.57L260.709 56.6631H259.244L256.383 63.6854H258.245L258.72 62.4342H261.233ZM260.912 61.0763H259.031L259.972 58.5448L260.912 61.0763ZM265.663 63.6854H269.872V62.2499H267.496V56.7601H265.663V63.6854Z" fill="#7D8C9B"/>
</svg>
